<?xml version="1.0" encoding="UTF-8"?>
<svg xmlns="http://www.w3.org/2000/svg" viewBox="0 0 1024 1024">
  <defs>
    <linearGradient id="grad" x1="0" x2="0" y1="0" y2="1">
      <stop offset="0%" stop-color="hsl(180, 100%, 40%)"></stop>
      <stop offset="100%" stop-color="hsl(185, 100%, 30%)"></stop>
    </linearGradient>
    <linearGradient id="grad2" x1="0" x2="0" y1="0" y2="1">
      <stop offset="0%" stop-color="hsl(185, 100%, 30%)"></stop>
      <stop offset="100%" stop-color="hsl(180, 100%, 40%)"></stop>
    </linearGradient>
    <mask id="dither">
      <rect x="0" y="0" width="256" height="256" fill="#fff"></rect>
      <rect x="0" y="56" width="8" height="8" stroke="#000" stroke-width=".5" fill="#000"></rect>
      <rect x="32" y="56" width="8" height="8" stroke="#000" stroke-width=".5" fill="#000"></rect>
      <rect x="64" y="56" width="8" height="8" stroke="#000" stroke-width=".5" fill="#000"></rect>
      <rect x="96" y="56" width="8" height="8" stroke="#000" stroke-width=".5" fill="#000"></rect>
      <rect x="128" y="56" width="8" height="8" stroke="#000" stroke-width=".5" fill="#000"></rect>
      <rect x="160" y="56" width="8" height="8" stroke="#000" stroke-width=".5" fill="#000"></rect>
      <rect x="192" y="56" width="8" height="8" stroke="#000" stroke-width=".5" fill="#000"></rect>
      <rect x="224" y="56" width="8" height="8" stroke="#000" stroke-width=".5" fill="#000"></rect>
      <rect x="16" y="72" width="8" height="8" stroke="#000" stroke-width=".5" fill="#000"></rect>
      <rect x="48" y="72" width="8" height="8" stroke="#000" stroke-width=".5" fill="#000"></rect>
      <rect x="80" y="72" width="8" height="8" stroke="#000" stroke-width=".5" fill="#000"></rect>
      <rect x="112" y="72" width="8" height="8" stroke="#000" stroke-width=".5" fill="#000"></rect>
      <rect x="144" y="72" width="8" height="8" stroke="#000" stroke-width=".5" fill="#000"></rect>
      <rect x="176" y="72" width="8" height="8" stroke="#000" stroke-width=".5" fill="#000"></rect>
      <rect x="208" y="72" width="8" height="8" stroke="#000" stroke-width=".5" fill="#000"></rect>
      <rect x="240" y="72" width="8" height="8" stroke="#000" stroke-width=".5" fill="#000"></rect>
      <rect x="0" y="88" width="8" height="8" stroke="#000" stroke-width=".5" fill="#000"></rect>
      <rect x="16" y="88" width="8" height="8" stroke="#000" stroke-width=".5" fill="#000"></rect>
      <rect x="32" y="88" width="8" height="8" stroke="#000" stroke-width=".5" fill="#000"></rect>
      <rect x="48" y="88" width="8" height="8" stroke="#000" stroke-width=".5" fill="#000"></rect>
      <rect x="64" y="88" width="8" height="8" stroke="#000" stroke-width=".5" fill="#000"></rect>
      <rect x="80" y="88" width="8" height="8" stroke="#000" stroke-width=".5" fill="#000"></rect>
      <rect x="96" y="88" width="8" height="8" stroke="#000" stroke-width=".5" fill="#000"></rect>
      <rect x="112" y="88" width="8" height="8" stroke="#000" stroke-width=".5" fill="#000"></rect>
      <rect x="128" y="88" width="8" height="8" stroke="#000" stroke-width=".5" fill="#000"></rect>
      <rect x="144" y="88" width="8" height="8" stroke="#000" stroke-width=".5" fill="#000"></rect>
      <rect x="160" y="88" width="8" height="8" stroke="#000" stroke-width=".5" fill="#000"></rect>
      <rect x="176" y="88" width="8" height="8" stroke="#000" stroke-width=".5" fill="#000"></rect>
      <rect x="192" y="88" width="8" height="8" stroke="#000" stroke-width=".5" fill="#000"></rect>
      <rect x="208" y="88" width="8" height="8" stroke="#000" stroke-width=".5" fill="#000"></rect>
      <rect x="224" y="88" width="8" height="8" stroke="#000" stroke-width=".5" fill="#000"></rect>
      <rect x="240" y="88" width="8" height="8" stroke="#000" stroke-width=".5" fill="#000"></rect>
      <rect x="0" y="104" width="8" height="8" stroke="#000" stroke-width=".5" fill="#000"></rect>
      <rect x="16" y="104" width="8" height="8" stroke="#000" stroke-width=".5" fill="#000"></rect>
      <rect x="32" y="104" width="8" height="8" stroke="#000" stroke-width=".5" fill="#000"></rect>
      <rect x="48" y="104" width="8" height="8" stroke="#000" stroke-width=".5" fill="#000"></rect>
      <rect x="64" y="104" width="8" height="8" stroke="#000" stroke-width=".5" fill="#000"></rect>
      <rect x="80" y="104" width="8" height="8" stroke="#000" stroke-width=".5" fill="#000"></rect>
      <rect x="96" y="104" width="8" height="8" stroke="#000" stroke-width=".5" fill="#000"></rect>
      <rect x="112" y="104" width="8" height="8" stroke="#000" stroke-width=".5" fill="#000"></rect>
      <rect x="128" y="104" width="8" height="8" stroke="#000" stroke-width=".5" fill="#000"></rect>
      <rect x="144" y="104" width="8" height="8" stroke="#000" stroke-width=".5" fill="#000"></rect>
      <rect x="160" y="104" width="8" height="8" stroke="#000" stroke-width=".5" fill="#000"></rect>
      <rect x="176" y="104" width="8" height="8" stroke="#000" stroke-width=".5" fill="#000"></rect>
      <rect x="192" y="104" width="8" height="8" stroke="#000" stroke-width=".5" fill="#000"></rect>
      <rect x="208" y="104" width="8" height="8" stroke="#000" stroke-width=".5" fill="#000"></rect>
      <rect x="224" y="104" width="8" height="8" stroke="#000" stroke-width=".5" fill="#000"></rect>
      <rect x="240" y="104" width="8" height="8" stroke="#000" stroke-width=".5" fill="#000"></rect>
      <rect x="8" y="112" width="8" height="8" stroke="#000" stroke-width=".5" fill="#000"></rect>
      <rect x="40" y="112" width="8" height="8" stroke="#000" stroke-width=".5" fill="#000"></rect>
      <rect x="72" y="112" width="8" height="8" stroke="#000" stroke-width=".5" fill="#000"></rect>
      <rect x="104" y="112" width="8" height="8" stroke="#000" stroke-width=".5" fill="#000"></rect>
      <rect x="136" y="112" width="8" height="8" stroke="#000" stroke-width=".5" fill="#000"></rect>
      <rect x="168" y="112" width="8" height="8" stroke="#000" stroke-width=".5" fill="#000"></rect>
      <rect x="200" y="112" width="8" height="8" stroke="#000" stroke-width=".5" fill="#000"></rect>
      <rect x="232" y="112" width="8" height="8" stroke="#000" stroke-width=".5" fill="#000"></rect>
      <rect x="0" y="120" width="8" height="8" stroke="#000" stroke-width=".5" fill="#000"></rect>
      <rect x="16" y="120" width="8" height="8" stroke="#000" stroke-width=".5" fill="#000"></rect>
      <rect x="32" y="120" width="8" height="8" stroke="#000" stroke-width=".5" fill="#000"></rect>
      <rect x="48" y="120" width="8" height="8" stroke="#000" stroke-width=".5" fill="#000"></rect>
      <rect x="64" y="120" width="8" height="8" stroke="#000" stroke-width=".5" fill="#000"></rect>
      <rect x="80" y="120" width="8" height="8" stroke="#000" stroke-width=".5" fill="#000"></rect>
      <rect x="96" y="120" width="8" height="8" stroke="#000" stroke-width=".5" fill="#000"></rect>
      <rect x="112" y="120" width="8" height="8" stroke="#000" stroke-width=".5" fill="#000"></rect>
      <rect x="128" y="120" width="8" height="8" stroke="#000" stroke-width=".5" fill="#000"></rect>
      <rect x="144" y="120" width="8" height="8" stroke="#000" stroke-width=".5" fill="#000"></rect>
      <rect x="160" y="120" width="8" height="8" stroke="#000" stroke-width=".5" fill="#000"></rect>
      <rect x="176" y="120" width="8" height="8" stroke="#000" stroke-width=".5" fill="#000"></rect>
      <rect x="192" y="120" width="8" height="8" stroke="#000" stroke-width=".5" fill="#000"></rect>
      <rect x="208" y="120" width="8" height="8" stroke="#000" stroke-width=".5" fill="#000"></rect>
      <rect x="224" y="120" width="8" height="8" stroke="#000" stroke-width=".5" fill="#000"></rect>
      <rect x="240" y="120" width="8" height="8" stroke="#000" stroke-width=".5" fill="#000"></rect>
      <rect x="24" y="128" width="8" height="8" stroke="#000" stroke-width=".5" fill="#000"></rect>
      <rect x="56" y="128" width="8" height="8" stroke="#000" stroke-width=".5" fill="#000"></rect>
      <rect x="88" y="128" width="8" height="8" stroke="#000" stroke-width=".5" fill="#000"></rect>
      <rect x="120" y="128" width="8" height="8" stroke="#000" stroke-width=".5" fill="#000"></rect>
      <rect x="152" y="128" width="8" height="8" stroke="#000" stroke-width=".5" fill="#000"></rect>
      <rect x="184" y="128" width="8" height="8" stroke="#000" stroke-width=".5" fill="#000"></rect>
      <rect x="216" y="128" width="8" height="8" stroke="#000" stroke-width=".5" fill="#000"></rect>
      <rect x="248" y="128" width="8" height="8" stroke="#000" stroke-width=".5" fill="#000"></rect>
      <rect x="0" y="136" width="8" height="8" stroke="#000" stroke-width=".5" fill="#000"></rect>
      <rect x="16" y="136" width="8" height="8" stroke="#000" stroke-width=".5" fill="#000"></rect>
      <rect x="32" y="136" width="8" height="8" stroke="#000" stroke-width=".5" fill="#000"></rect>
      <rect x="48" y="136" width="8" height="8" stroke="#000" stroke-width=".5" fill="#000"></rect>
      <rect x="64" y="136" width="8" height="8" stroke="#000" stroke-width=".5" fill="#000"></rect>
      <rect x="80" y="136" width="8" height="8" stroke="#000" stroke-width=".5" fill="#000"></rect>
      <rect x="96" y="136" width="8" height="8" stroke="#000" stroke-width=".5" fill="#000"></rect>
      <rect x="112" y="136" width="8" height="8" stroke="#000" stroke-width=".5" fill="#000"></rect>
      <rect x="128" y="136" width="8" height="8" stroke="#000" stroke-width=".5" fill="#000"></rect>
      <rect x="144" y="136" width="8" height="8" stroke="#000" stroke-width=".5" fill="#000"></rect>
      <rect x="160" y="136" width="8" height="8" stroke="#000" stroke-width=".5" fill="#000"></rect>
      <rect x="176" y="136" width="8" height="8" stroke="#000" stroke-width=".5" fill="#000"></rect>
      <rect x="192" y="136" width="8" height="8" stroke="#000" stroke-width=".5" fill="#000"></rect>
      <rect x="208" y="136" width="8" height="8" stroke="#000" stroke-width=".5" fill="#000"></rect>
      <rect x="224" y="136" width="8" height="8" stroke="#000" stroke-width=".5" fill="#000"></rect>
      <rect x="240" y="136" width="8" height="8" stroke="#000" stroke-width=".5" fill="#000"></rect>
      <rect x="8" y="144" width="8" height="8" stroke="#000" stroke-width=".5" fill="#000"></rect>
      <rect x="24" y="144" width="8" height="8" stroke="#000" stroke-width=".5" fill="#000"></rect>
      <rect x="40" y="144" width="8" height="8" stroke="#000" stroke-width=".5" fill="#000"></rect>
      <rect x="56" y="144" width="8" height="8" stroke="#000" stroke-width=".5" fill="#000"></rect>
      <rect x="72" y="144" width="8" height="8" stroke="#000" stroke-width=".5" fill="#000"></rect>
      <rect x="88" y="144" width="8" height="8" stroke="#000" stroke-width=".5" fill="#000"></rect>
      <rect x="104" y="144" width="8" height="8" stroke="#000" stroke-width=".5" fill="#000"></rect>
      <rect x="120" y="144" width="8" height="8" stroke="#000" stroke-width=".5" fill="#000"></rect>
      <rect x="136" y="144" width="8" height="8" stroke="#000" stroke-width=".5" fill="#000"></rect>
      <rect x="152" y="144" width="8" height="8" stroke="#000" stroke-width=".5" fill="#000"></rect>
      <rect x="168" y="144" width="8" height="8" stroke="#000" stroke-width=".5" fill="#000"></rect>
      <rect x="184" y="144" width="8" height="8" stroke="#000" stroke-width=".5" fill="#000"></rect>
      <rect x="200" y="144" width="8" height="8" stroke="#000" stroke-width=".5" fill="#000"></rect>
      <rect x="216" y="144" width="8" height="8" stroke="#000" stroke-width=".5" fill="#000"></rect>
      <rect x="232" y="144" width="8" height="8" stroke="#000" stroke-width=".5" fill="#000"></rect>
      <rect x="248" y="144" width="8" height="8" stroke="#000" stroke-width=".5" fill="#000"></rect>
      <rect x="0" y="152" width="8" height="8" stroke="#000" stroke-width=".5" fill="#000"></rect>
      <rect x="8" y="152" width="8" height="8" stroke="#000" stroke-width=".5" fill="#000"></rect>
      <rect x="16" y="152" width="8" height="8" stroke="#000" stroke-width=".5" fill="#000"></rect>
      <rect x="32" y="152" width="8" height="8" stroke="#000" stroke-width=".5" fill="#000"></rect>
      <rect x="40" y="152" width="8" height="8" stroke="#000" stroke-width=".5" fill="#000"></rect>
      <rect x="48" y="152" width="8" height="8" stroke="#000" stroke-width=".5" fill="#000"></rect>
      <rect x="64" y="152" width="8" height="8" stroke="#000" stroke-width=".5" fill="#000"></rect>
      <rect x="72" y="152" width="8" height="8" stroke="#000" stroke-width=".5" fill="#000"></rect>
      <rect x="80" y="152" width="8" height="8" stroke="#000" stroke-width=".5" fill="#000"></rect>
      <rect x="96" y="152" width="8" height="8" stroke="#000" stroke-width=".5" fill="#000"></rect>
      <rect x="104" y="152" width="8" height="8" stroke="#000" stroke-width=".5" fill="#000"></rect>
      <rect x="112" y="152" width="8" height="8" stroke="#000" stroke-width=".5" fill="#000"></rect>
      <rect x="128" y="152" width="8" height="8" stroke="#000" stroke-width=".5" fill="#000"></rect>
      <rect x="136" y="152" width="8" height="8" stroke="#000" stroke-width=".5" fill="#000"></rect>
      <rect x="144" y="152" width="8" height="8" stroke="#000" stroke-width=".5" fill="#000"></rect>
      <rect x="160" y="152" width="8" height="8" stroke="#000" stroke-width=".5" fill="#000"></rect>
      <rect x="168" y="152" width="8" height="8" stroke="#000" stroke-width=".5" fill="#000"></rect>
      <rect x="176" y="152" width="8" height="8" stroke="#000" stroke-width=".5" fill="#000"></rect>
      <rect x="192" y="152" width="8" height="8" stroke="#000" stroke-width=".5" fill="#000"></rect>
      <rect x="200" y="152" width="8" height="8" stroke="#000" stroke-width=".5" fill="#000"></rect>
      <rect x="208" y="152" width="8" height="8" stroke="#000" stroke-width=".5" fill="#000"></rect>
      <rect x="224" y="152" width="8" height="8" stroke="#000" stroke-width=".5" fill="#000"></rect>
      <rect x="232" y="152" width="8" height="8" stroke="#000" stroke-width=".5" fill="#000"></rect>
      <rect x="240" y="152" width="8" height="8" stroke="#000" stroke-width=".5" fill="#000"></rect>
      <rect x="8" y="160" width="8" height="8" stroke="#000" stroke-width=".5" fill="#000"></rect>
      <rect x="24" y="160" width="8" height="8" stroke="#000" stroke-width=".5" fill="#000"></rect>
      <rect x="40" y="160" width="8" height="8" stroke="#000" stroke-width=".5" fill="#000"></rect>
      <rect x="56" y="160" width="8" height="8" stroke="#000" stroke-width=".5" fill="#000"></rect>
      <rect x="72" y="160" width="8" height="8" stroke="#000" stroke-width=".5" fill="#000"></rect>
      <rect x="88" y="160" width="8" height="8" stroke="#000" stroke-width=".5" fill="#000"></rect>
      <rect x="104" y="160" width="8" height="8" stroke="#000" stroke-width=".5" fill="#000"></rect>
      <rect x="120" y="160" width="8" height="8" stroke="#000" stroke-width=".5" fill="#000"></rect>
      <rect x="136" y="160" width="8" height="8" stroke="#000" stroke-width=".5" fill="#000"></rect>
      <rect x="152" y="160" width="8" height="8" stroke="#000" stroke-width=".5" fill="#000"></rect>
      <rect x="168" y="160" width="8" height="8" stroke="#000" stroke-width=".5" fill="#000"></rect>
      <rect x="184" y="160" width="8" height="8" stroke="#000" stroke-width=".5" fill="#000"></rect>
      <rect x="200" y="160" width="8" height="8" stroke="#000" stroke-width=".5" fill="#000"></rect>
      <rect x="216" y="160" width="8" height="8" stroke="#000" stroke-width=".5" fill="#000"></rect>
      <rect x="232" y="160" width="8" height="8" stroke="#000" stroke-width=".5" fill="#000"></rect>
      <rect x="248" y="160" width="8" height="8" stroke="#000" stroke-width=".5" fill="#000"></rect>
      <rect x="0" y="168" width="8" height="8" stroke="#000" stroke-width=".5" fill="#000"></rect>
      <rect x="16" y="168" width="8" height="8" stroke="#000" stroke-width=".5" fill="#000"></rect>
      <rect x="24" y="168" width="8" height="8" stroke="#000" stroke-width=".5" fill="#000"></rect>
      <rect x="32" y="168" width="8" height="8" stroke="#000" stroke-width=".5" fill="#000"></rect>
      <rect x="48" y="168" width="8" height="8" stroke="#000" stroke-width=".5" fill="#000"></rect>
      <rect x="56" y="168" width="8" height="8" stroke="#000" stroke-width=".5" fill="#000"></rect>
      <rect x="64" y="168" width="8" height="8" stroke="#000" stroke-width=".5" fill="#000"></rect>
      <rect x="80" y="168" width="8" height="8" stroke="#000" stroke-width=".5" fill="#000"></rect>
      <rect x="88" y="168" width="8" height="8" stroke="#000" stroke-width=".5" fill="#000"></rect>
      <rect x="96" y="168" width="8" height="8" stroke="#000" stroke-width=".5" fill="#000"></rect>
      <rect x="112" y="168" width="8" height="8" stroke="#000" stroke-width=".5" fill="#000"></rect>
      <rect x="120" y="168" width="8" height="8" stroke="#000" stroke-width=".5" fill="#000"></rect>
      <rect x="128" y="168" width="8" height="8" stroke="#000" stroke-width=".5" fill="#000"></rect>
      <rect x="144" y="168" width="8" height="8" stroke="#000" stroke-width=".5" fill="#000"></rect>
      <rect x="152" y="168" width="8" height="8" stroke="#000" stroke-width=".5" fill="#000"></rect>
      <rect x="160" y="168" width="8" height="8" stroke="#000" stroke-width=".5" fill="#000"></rect>
      <rect x="176" y="168" width="8" height="8" stroke="#000" stroke-width=".5" fill="#000"></rect>
      <rect x="184" y="168" width="8" height="8" stroke="#000" stroke-width=".5" fill="#000"></rect>
      <rect x="192" y="168" width="8" height="8" stroke="#000" stroke-width=".5" fill="#000"></rect>
      <rect x="208" y="168" width="8" height="8" stroke="#000" stroke-width=".5" fill="#000"></rect>
      <rect x="216" y="168" width="8" height="8" stroke="#000" stroke-width=".5" fill="#000"></rect>
      <rect x="224" y="168" width="8" height="8" stroke="#000" stroke-width=".5" fill="#000"></rect>
      <rect x="240" y="168" width="8" height="8" stroke="#000" stroke-width=".5" fill="#000"></rect>
      <rect x="248" y="168" width="8" height="8" stroke="#000" stroke-width=".5" fill="#000"></rect>
      <rect x="8" y="176" width="8" height="8" stroke="#000" stroke-width=".5" fill="#000"></rect>
      <rect x="24" y="176" width="8" height="8" stroke="#000" stroke-width=".5" fill="#000"></rect>
      <rect x="40" y="176" width="8" height="8" stroke="#000" stroke-width=".5" fill="#000"></rect>
      <rect x="56" y="176" width="8" height="8" stroke="#000" stroke-width=".5" fill="#000"></rect>
      <rect x="72" y="176" width="8" height="8" stroke="#000" stroke-width=".5" fill="#000"></rect>
      <rect x="88" y="176" width="8" height="8" stroke="#000" stroke-width=".5" fill="#000"></rect>
      <rect x="104" y="176" width="8" height="8" stroke="#000" stroke-width=".5" fill="#000"></rect>
      <rect x="120" y="176" width="8" height="8" stroke="#000" stroke-width=".5" fill="#000"></rect>
      <rect x="136" y="176" width="8" height="8" stroke="#000" stroke-width=".5" fill="#000"></rect>
      <rect x="152" y="176" width="8" height="8" stroke="#000" stroke-width=".5" fill="#000"></rect>
      <rect x="168" y="176" width="8" height="8" stroke="#000" stroke-width=".5" fill="#000"></rect>
      <rect x="184" y="176" width="8" height="8" stroke="#000" stroke-width=".5" fill="#000"></rect>
      <rect x="200" y="176" width="8" height="8" stroke="#000" stroke-width=".5" fill="#000"></rect>
      <rect x="216" y="176" width="8" height="8" stroke="#000" stroke-width=".5" fill="#000"></rect>
      <rect x="232" y="176" width="8" height="8" stroke="#000" stroke-width=".5" fill="#000"></rect>
      <rect x="248" y="176" width="8" height="8" stroke="#000" stroke-width=".5" fill="#000"></rect>
      <rect x="0" y="184" width="8" height="8" stroke="#000" stroke-width=".5" fill="#000"></rect>
      <rect x="8" y="184" width="8" height="8" stroke="#000" stroke-width=".5" fill="#000"></rect>
      <rect x="16" y="184" width="8" height="8" stroke="#000" stroke-width=".5" fill="#000"></rect>
      <rect x="24" y="184" width="8" height="8" stroke="#000" stroke-width=".5" fill="#000"></rect>
      <rect x="32" y="184" width="8" height="8" stroke="#000" stroke-width=".5" fill="#000"></rect>
      <rect x="40" y="184" width="8" height="8" stroke="#000" stroke-width=".5" fill="#000"></rect>
      <rect x="48" y="184" width="8" height="8" stroke="#000" stroke-width=".5" fill="#000"></rect>
      <rect x="56" y="184" width="8" height="8" stroke="#000" stroke-width=".5" fill="#000"></rect>
      <rect x="64" y="184" width="8" height="8" stroke="#000" stroke-width=".5" fill="#000"></rect>
      <rect x="72" y="184" width="8" height="8" stroke="#000" stroke-width=".5" fill="#000"></rect>
      <rect x="80" y="184" width="8" height="8" stroke="#000" stroke-width=".5" fill="#000"></rect>
      <rect x="88" y="184" width="8" height="8" stroke="#000" stroke-width=".5" fill="#000"></rect>
      <rect x="96" y="184" width="8" height="8" stroke="#000" stroke-width=".5" fill="#000"></rect>
      <rect x="104" y="184" width="8" height="8" stroke="#000" stroke-width=".5" fill="#000"></rect>
      <rect x="112" y="184" width="8" height="8" stroke="#000" stroke-width=".5" fill="#000"></rect>
      <rect x="120" y="184" width="8" height="8" stroke="#000" stroke-width=".5" fill="#000"></rect>
      <rect x="128" y="184" width="8" height="8" stroke="#000" stroke-width=".5" fill="#000"></rect>
      <rect x="136" y="184" width="8" height="8" stroke="#000" stroke-width=".5" fill="#000"></rect>
      <rect x="144" y="184" width="8" height="8" stroke="#000" stroke-width=".5" fill="#000"></rect>
      <rect x="152" y="184" width="8" height="8" stroke="#000" stroke-width=".5" fill="#000"></rect>
      <rect x="160" y="184" width="8" height="8" stroke="#000" stroke-width=".5" fill="#000"></rect>
      <rect x="168" y="184" width="8" height="8" stroke="#000" stroke-width=".5" fill="#000"></rect>
      <rect x="176" y="184" width="8" height="8" stroke="#000" stroke-width=".5" fill="#000"></rect>
      <rect x="184" y="184" width="8" height="8" stroke="#000" stroke-width=".5" fill="#000"></rect>
      <rect x="192" y="184" width="8" height="8" stroke="#000" stroke-width=".5" fill="#000"></rect>
      <rect x="200" y="184" width="8" height="8" stroke="#000" stroke-width=".5" fill="#000"></rect>
      <rect x="208" y="184" width="8" height="8" stroke="#000" stroke-width=".5" fill="#000"></rect>
      <rect x="216" y="184" width="8" height="8" stroke="#000" stroke-width=".5" fill="#000"></rect>
      <rect x="224" y="184" width="8" height="8" stroke="#000" stroke-width=".5" fill="#000"></rect>
      <rect x="232" y="184" width="8" height="8" stroke="#000" stroke-width=".5" fill="#000"></rect>
      <rect x="240" y="184" width="8" height="8" stroke="#000" stroke-width=".5" fill="#000"></rect>
      <rect x="248" y="184" width="8" height="8" stroke="#000" stroke-width=".5" fill="#000"></rect>
      <rect x="8" y="192" width="8" height="8" stroke="#000" stroke-width=".5" fill="#000"></rect>
      <rect x="24" y="192" width="8" height="8" stroke="#000" stroke-width=".5" fill="#000"></rect>
      <rect x="40" y="192" width="8" height="8" stroke="#000" stroke-width=".5" fill="#000"></rect>
      <rect x="56" y="192" width="8" height="8" stroke="#000" stroke-width=".5" fill="#000"></rect>
      <rect x="72" y="192" width="8" height="8" stroke="#000" stroke-width=".5" fill="#000"></rect>
      <rect x="88" y="192" width="8" height="8" stroke="#000" stroke-width=".5" fill="#000"></rect>
      <rect x="104" y="192" width="8" height="8" stroke="#000" stroke-width=".5" fill="#000"></rect>
      <rect x="120" y="192" width="8" height="8" stroke="#000" stroke-width=".5" fill="#000"></rect>
      <rect x="136" y="192" width="8" height="8" stroke="#000" stroke-width=".5" fill="#000"></rect>
      <rect x="152" y="192" width="8" height="8" stroke="#000" stroke-width=".5" fill="#000"></rect>
      <rect x="168" y="192" width="8" height="8" stroke="#000" stroke-width=".5" fill="#000"></rect>
      <rect x="184" y="192" width="8" height="8" stroke="#000" stroke-width=".5" fill="#000"></rect>
      <rect x="200" y="192" width="8" height="8" stroke="#000" stroke-width=".5" fill="#000"></rect>
      <rect x="216" y="192" width="8" height="8" stroke="#000" stroke-width=".5" fill="#000"></rect>
      <rect x="232" y="192" width="8" height="8" stroke="#000" stroke-width=".5" fill="#000"></rect>
      <rect x="248" y="192" width="8" height="8" stroke="#000" stroke-width=".5" fill="#000"></rect>
      <rect x="0" y="200" width="8" height="8" stroke="#000" stroke-width=".5" fill="#000"></rect>
      <rect x="8" y="200" width="8" height="8" stroke="#000" stroke-width=".5" fill="#000"></rect>
      <rect x="16" y="200" width="8" height="8" stroke="#000" stroke-width=".5" fill="#000"></rect>
      <rect x="24" y="200" width="8" height="8" stroke="#000" stroke-width=".5" fill="#000"></rect>
      <rect x="32" y="200" width="8" height="8" stroke="#000" stroke-width=".5" fill="#000"></rect>
      <rect x="40" y="200" width="8" height="8" stroke="#000" stroke-width=".5" fill="#000"></rect>
      <rect x="48" y="200" width="8" height="8" stroke="#000" stroke-width=".5" fill="#000"></rect>
      <rect x="56" y="200" width="8" height="8" stroke="#000" stroke-width=".5" fill="#000"></rect>
      <rect x="64" y="200" width="8" height="8" stroke="#000" stroke-width=".5" fill="#000"></rect>
      <rect x="72" y="200" width="8" height="8" stroke="#000" stroke-width=".5" fill="#000"></rect>
      <rect x="80" y="200" width="8" height="8" stroke="#000" stroke-width=".5" fill="#000"></rect>
      <rect x="88" y="200" width="8" height="8" stroke="#000" stroke-width=".5" fill="#000"></rect>
      <rect x="96" y="200" width="8" height="8" stroke="#000" stroke-width=".5" fill="#000"></rect>
      <rect x="104" y="200" width="8" height="8" stroke="#000" stroke-width=".5" fill="#000"></rect>
      <rect x="112" y="200" width="8" height="8" stroke="#000" stroke-width=".5" fill="#000"></rect>
      <rect x="120" y="200" width="8" height="8" stroke="#000" stroke-width=".5" fill="#000"></rect>
      <rect x="128" y="200" width="8" height="8" stroke="#000" stroke-width=".5" fill="#000"></rect>
      <rect x="136" y="200" width="8" height="8" stroke="#000" stroke-width=".5" fill="#000"></rect>
      <rect x="144" y="200" width="8" height="8" stroke="#000" stroke-width=".5" fill="#000"></rect>
      <rect x="152" y="200" width="8" height="8" stroke="#000" stroke-width=".5" fill="#000"></rect>
      <rect x="160" y="200" width="8" height="8" stroke="#000" stroke-width=".5" fill="#000"></rect>
      <rect x="168" y="200" width="8" height="8" stroke="#000" stroke-width=".5" fill="#000"></rect>
      <rect x="176" y="200" width="8" height="8" stroke="#000" stroke-width=".5" fill="#000"></rect>
      <rect x="184" y="200" width="8" height="8" stroke="#000" stroke-width=".5" fill="#000"></rect>
      <rect x="192" y="200" width="8" height="8" stroke="#000" stroke-width=".5" fill="#000"></rect>
      <rect x="200" y="200" width="8" height="8" stroke="#000" stroke-width=".5" fill="#000"></rect>
      <rect x="208" y="200" width="8" height="8" stroke="#000" stroke-width=".5" fill="#000"></rect>
      <rect x="216" y="200" width="8" height="8" stroke="#000" stroke-width=".5" fill="#000"></rect>
      <rect x="224" y="200" width="8" height="8" stroke="#000" stroke-width=".5" fill="#000"></rect>
      <rect x="232" y="200" width="8" height="8" stroke="#000" stroke-width=".5" fill="#000"></rect>
      <rect x="240" y="200" width="8" height="8" stroke="#000" stroke-width=".5" fill="#000"></rect>
      <rect x="248" y="200" width="8" height="8" stroke="#000" stroke-width=".5" fill="#000"></rect>
      <rect x="0" y="208" width="8" height="8" stroke="#000" stroke-width=".5" fill="#000"></rect>
      <rect x="8" y="208" width="8" height="8" stroke="#000" stroke-width=".5" fill="#000"></rect>
      <rect x="24" y="208" width="8" height="8" stroke="#000" stroke-width=".5" fill="#000"></rect>
      <rect x="32" y="208" width="8" height="8" stroke="#000" stroke-width=".5" fill="#000"></rect>
      <rect x="40" y="208" width="8" height="8" stroke="#000" stroke-width=".5" fill="#000"></rect>
      <rect x="56" y="208" width="8" height="8" stroke="#000" stroke-width=".5" fill="#000"></rect>
      <rect x="64" y="208" width="8" height="8" stroke="#000" stroke-width=".5" fill="#000"></rect>
      <rect x="72" y="208" width="8" height="8" stroke="#000" stroke-width=".5" fill="#000"></rect>
      <rect x="88" y="208" width="8" height="8" stroke="#000" stroke-width=".5" fill="#000"></rect>
      <rect x="96" y="208" width="8" height="8" stroke="#000" stroke-width=".5" fill="#000"></rect>
      <rect x="104" y="208" width="8" height="8" stroke="#000" stroke-width=".5" fill="#000"></rect>
      <rect x="120" y="208" width="8" height="8" stroke="#000" stroke-width=".5" fill="#000"></rect>
      <rect x="128" y="208" width="8" height="8" stroke="#000" stroke-width=".5" fill="#000"></rect>
      <rect x="136" y="208" width="8" height="8" stroke="#000" stroke-width=".5" fill="#000"></rect>
      <rect x="152" y="208" width="8" height="8" stroke="#000" stroke-width=".5" fill="#000"></rect>
      <rect x="160" y="208" width="8" height="8" stroke="#000" stroke-width=".5" fill="#000"></rect>
      <rect x="168" y="208" width="8" height="8" stroke="#000" stroke-width=".5" fill="#000"></rect>
      <rect x="184" y="208" width="8" height="8" stroke="#000" stroke-width=".5" fill="#000"></rect>
      <rect x="192" y="208" width="8" height="8" stroke="#000" stroke-width=".5" fill="#000"></rect>
      <rect x="200" y="208" width="8" height="8" stroke="#000" stroke-width=".5" fill="#000"></rect>
      <rect x="216" y="208" width="8" height="8" stroke="#000" stroke-width=".5" fill="#000"></rect>
      <rect x="224" y="208" width="8" height="8" stroke="#000" stroke-width=".5" fill="#000"></rect>
      <rect x="232" y="208" width="8" height="8" stroke="#000" stroke-width=".5" fill="#000"></rect>
      <rect x="248" y="208" width="8" height="8" stroke="#000" stroke-width=".5" fill="#000"></rect>
      <rect x="0" y="216" width="8" height="8" stroke="#000" stroke-width=".5" fill="#000"></rect>
      <rect x="8" y="216" width="8" height="8" stroke="#000" stroke-width=".5" fill="#000"></rect>
      <rect x="16" y="216" width="8" height="8" stroke="#000" stroke-width=".5" fill="#000"></rect>
      <rect x="24" y="216" width="8" height="8" stroke="#000" stroke-width=".5" fill="#000"></rect>
      <rect x="32" y="216" width="8" height="8" stroke="#000" stroke-width=".5" fill="#000"></rect>
      <rect x="40" y="216" width="8" height="8" stroke="#000" stroke-width=".5" fill="#000"></rect>
      <rect x="48" y="216" width="8" height="8" stroke="#000" stroke-width=".5" fill="#000"></rect>
      <rect x="56" y="216" width="8" height="8" stroke="#000" stroke-width=".5" fill="#000"></rect>
      <rect x="64" y="216" width="8" height="8" stroke="#000" stroke-width=".5" fill="#000"></rect>
      <rect x="72" y="216" width="8" height="8" stroke="#000" stroke-width=".5" fill="#000"></rect>
      <rect x="80" y="216" width="8" height="8" stroke="#000" stroke-width=".5" fill="#000"></rect>
      <rect x="88" y="216" width="8" height="8" stroke="#000" stroke-width=".5" fill="#000"></rect>
      <rect x="96" y="216" width="8" height="8" stroke="#000" stroke-width=".5" fill="#000"></rect>
      <rect x="104" y="216" width="8" height="8" stroke="#000" stroke-width=".5" fill="#000"></rect>
      <rect x="112" y="216" width="8" height="8" stroke="#000" stroke-width=".5" fill="#000"></rect>
      <rect x="120" y="216" width="8" height="8" stroke="#000" stroke-width=".5" fill="#000"></rect>
      <rect x="128" y="216" width="8" height="8" stroke="#000" stroke-width=".5" fill="#000"></rect>
      <rect x="136" y="216" width="8" height="8" stroke="#000" stroke-width=".5" fill="#000"></rect>
      <rect x="144" y="216" width="8" height="8" stroke="#000" stroke-width=".5" fill="#000"></rect>
      <rect x="152" y="216" width="8" height="8" stroke="#000" stroke-width=".5" fill="#000"></rect>
      <rect x="160" y="216" width="8" height="8" stroke="#000" stroke-width=".5" fill="#000"></rect>
      <rect x="168" y="216" width="8" height="8" stroke="#000" stroke-width=".5" fill="#000"></rect>
      <rect x="176" y="216" width="8" height="8" stroke="#000" stroke-width=".5" fill="#000"></rect>
      <rect x="184" y="216" width="8" height="8" stroke="#000" stroke-width=".5" fill="#000"></rect>
      <rect x="192" y="216" width="8" height="8" stroke="#000" stroke-width=".5" fill="#000"></rect>
      <rect x="200" y="216" width="8" height="8" stroke="#000" stroke-width=".5" fill="#000"></rect>
      <rect x="208" y="216" width="8" height="8" stroke="#000" stroke-width=".5" fill="#000"></rect>
      <rect x="216" y="216" width="8" height="8" stroke="#000" stroke-width=".5" fill="#000"></rect>
      <rect x="224" y="216" width="8" height="8" stroke="#000" stroke-width=".5" fill="#000"></rect>
      <rect x="232" y="216" width="8" height="8" stroke="#000" stroke-width=".5" fill="#000"></rect>
      <rect x="240" y="216" width="8" height="8" stroke="#000" stroke-width=".5" fill="#000"></rect>
      <rect x="248" y="216" width="8" height="8" stroke="#000" stroke-width=".5" fill="#000"></rect>
      <rect x="8" y="224" width="8" height="8" stroke="#000" stroke-width=".5" fill="#000"></rect>
      <rect x="16" y="224" width="8" height="8" stroke="#000" stroke-width=".5" fill="#000"></rect>
      <rect x="24" y="224" width="8" height="8" stroke="#000" stroke-width=".5" fill="#000"></rect>
      <rect x="40" y="224" width="8" height="8" stroke="#000" stroke-width=".5" fill="#000"></rect>
      <rect x="48" y="224" width="8" height="8" stroke="#000" stroke-width=".5" fill="#000"></rect>
      <rect x="56" y="224" width="8" height="8" stroke="#000" stroke-width=".5" fill="#000"></rect>
      <rect x="72" y="224" width="8" height="8" stroke="#000" stroke-width=".5" fill="#000"></rect>
      <rect x="80" y="224" width="8" height="8" stroke="#000" stroke-width=".5" fill="#000"></rect>
      <rect x="88" y="224" width="8" height="8" stroke="#000" stroke-width=".5" fill="#000"></rect>
      <rect x="104" y="224" width="8" height="8" stroke="#000" stroke-width=".5" fill="#000"></rect>
      <rect x="112" y="224" width="8" height="8" stroke="#000" stroke-width=".5" fill="#000"></rect>
      <rect x="120" y="224" width="8" height="8" stroke="#000" stroke-width=".5" fill="#000"></rect>
      <rect x="136" y="224" width="8" height="8" stroke="#000" stroke-width=".5" fill="#000"></rect>
      <rect x="144" y="224" width="8" height="8" stroke="#000" stroke-width=".5" fill="#000"></rect>
      <rect x="152" y="224" width="8" height="8" stroke="#000" stroke-width=".5" fill="#000"></rect>
      <rect x="168" y="224" width="8" height="8" stroke="#000" stroke-width=".5" fill="#000"></rect>
      <rect x="176" y="224" width="8" height="8" stroke="#000" stroke-width=".5" fill="#000"></rect>
      <rect x="184" y="224" width="8" height="8" stroke="#000" stroke-width=".5" fill="#000"></rect>
      <rect x="200" y="224" width="8" height="8" stroke="#000" stroke-width=".5" fill="#000"></rect>
      <rect x="208" y="224" width="8" height="8" stroke="#000" stroke-width=".5" fill="#000"></rect>
      <rect x="216" y="224" width="8" height="8" stroke="#000" stroke-width=".5" fill="#000"></rect>
      <rect x="232" y="224" width="8" height="8" stroke="#000" stroke-width=".5" fill="#000"></rect>
      <rect x="240" y="224" width="8" height="8" stroke="#000" stroke-width=".5" fill="#000"></rect>
      <rect x="248" y="224" width="8" height="8" stroke="#000" stroke-width=".5" fill="#000"></rect>
      <rect x="0" y="232" width="8" height="8" stroke="#000" stroke-width=".5" fill="#000"></rect>
      <rect x="8" y="232" width="8" height="8" stroke="#000" stroke-width=".5" fill="#000"></rect>
      <rect x="16" y="232" width="8" height="8" stroke="#000" stroke-width=".5" fill="#000"></rect>
      <rect x="24" y="232" width="8" height="8" stroke="#000" stroke-width=".5" fill="#000"></rect>
      <rect x="32" y="232" width="8" height="8" stroke="#000" stroke-width=".5" fill="#000"></rect>
      <rect x="40" y="232" width="8" height="8" stroke="#000" stroke-width=".5" fill="#000"></rect>
      <rect x="48" y="232" width="8" height="8" stroke="#000" stroke-width=".5" fill="#000"></rect>
      <rect x="56" y="232" width="8" height="8" stroke="#000" stroke-width=".5" fill="#000"></rect>
      <rect x="64" y="232" width="8" height="8" stroke="#000" stroke-width=".5" fill="#000"></rect>
      <rect x="72" y="232" width="8" height="8" stroke="#000" stroke-width=".5" fill="#000"></rect>
      <rect x="80" y="232" width="8" height="8" stroke="#000" stroke-width=".5" fill="#000"></rect>
      <rect x="88" y="232" width="8" height="8" stroke="#000" stroke-width=".5" fill="#000"></rect>
      <rect x="96" y="232" width="8" height="8" stroke="#000" stroke-width=".5" fill="#000"></rect>
      <rect x="104" y="232" width="8" height="8" stroke="#000" stroke-width=".5" fill="#000"></rect>
      <rect x="112" y="232" width="8" height="8" stroke="#000" stroke-width=".5" fill="#000"></rect>
      <rect x="120" y="232" width="8" height="8" stroke="#000" stroke-width=".5" fill="#000"></rect>
      <rect x="128" y="232" width="8" height="8" stroke="#000" stroke-width=".5" fill="#000"></rect>
      <rect x="136" y="232" width="8" height="8" stroke="#000" stroke-width=".5" fill="#000"></rect>
      <rect x="144" y="232" width="8" height="8" stroke="#000" stroke-width=".5" fill="#000"></rect>
      <rect x="152" y="232" width="8" height="8" stroke="#000" stroke-width=".5" fill="#000"></rect>
      <rect x="160" y="232" width="8" height="8" stroke="#000" stroke-width=".5" fill="#000"></rect>
      <rect x="168" y="232" width="8" height="8" stroke="#000" stroke-width=".5" fill="#000"></rect>
      <rect x="176" y="232" width="8" height="8" stroke="#000" stroke-width=".5" fill="#000"></rect>
      <rect x="184" y="232" width="8" height="8" stroke="#000" stroke-width=".5" fill="#000"></rect>
      <rect x="192" y="232" width="8" height="8" stroke="#000" stroke-width=".5" fill="#000"></rect>
      <rect x="200" y="232" width="8" height="8" stroke="#000" stroke-width=".5" fill="#000"></rect>
      <rect x="208" y="232" width="8" height="8" stroke="#000" stroke-width=".5" fill="#000"></rect>
      <rect x="216" y="232" width="8" height="8" stroke="#000" stroke-width=".5" fill="#000"></rect>
      <rect x="224" y="232" width="8" height="8" stroke="#000" stroke-width=".5" fill="#000"></rect>
      <rect x="232" y="232" width="8" height="8" stroke="#000" stroke-width=".5" fill="#000"></rect>
      <rect x="240" y="232" width="8" height="8" stroke="#000" stroke-width=".5" fill="#000"></rect>
      <rect x="248" y="232" width="8" height="8" stroke="#000" stroke-width=".5" fill="#000"></rect>
      <rect x="0" y="240" width="8" height="8" stroke="#000" stroke-width=".5" fill="#000"></rect>
      <rect x="8" y="240" width="8" height="8" stroke="#000" stroke-width=".5" fill="#000"></rect>
      <rect x="16" y="240" width="8" height="8" stroke="#000" stroke-width=".5" fill="#000"></rect>
      <rect x="24" y="240" width="8" height="8" stroke="#000" stroke-width=".5" fill="#000"></rect>
      <rect x="32" y="240" width="8" height="8" stroke="#000" stroke-width=".5" fill="#000"></rect>
      <rect x="40" y="240" width="8" height="8" stroke="#000" stroke-width=".5" fill="#000"></rect>
      <rect x="48" y="240" width="8" height="8" stroke="#000" stroke-width=".5" fill="#000"></rect>
      <rect x="56" y="240" width="8" height="8" stroke="#000" stroke-width=".5" fill="#000"></rect>
      <rect x="64" y="240" width="8" height="8" stroke="#000" stroke-width=".5" fill="#000"></rect>
      <rect x="72" y="240" width="8" height="8" stroke="#000" stroke-width=".5" fill="#000"></rect>
      <rect x="80" y="240" width="8" height="8" stroke="#000" stroke-width=".5" fill="#000"></rect>
      <rect x="88" y="240" width="8" height="8" stroke="#000" stroke-width=".5" fill="#000"></rect>
      <rect x="96" y="240" width="8" height="8" stroke="#000" stroke-width=".5" fill="#000"></rect>
      <rect x="104" y="240" width="8" height="8" stroke="#000" stroke-width=".5" fill="#000"></rect>
      <rect x="112" y="240" width="8" height="8" stroke="#000" stroke-width=".5" fill="#000"></rect>
      <rect x="120" y="240" width="8" height="8" stroke="#000" stroke-width=".5" fill="#000"></rect>
      <rect x="128" y="240" width="8" height="8" stroke="#000" stroke-width=".5" fill="#000"></rect>
      <rect x="136" y="240" width="8" height="8" stroke="#000" stroke-width=".5" fill="#000"></rect>
      <rect x="144" y="240" width="8" height="8" stroke="#000" stroke-width=".5" fill="#000"></rect>
      <rect x="152" y="240" width="8" height="8" stroke="#000" stroke-width=".5" fill="#000"></rect>
      <rect x="160" y="240" width="8" height="8" stroke="#000" stroke-width=".5" fill="#000"></rect>
      <rect x="168" y="240" width="8" height="8" stroke="#000" stroke-width=".5" fill="#000"></rect>
      <rect x="176" y="240" width="8" height="8" stroke="#000" stroke-width=".5" fill="#000"></rect>
      <rect x="184" y="240" width="8" height="8" stroke="#000" stroke-width=".5" fill="#000"></rect>
      <rect x="192" y="240" width="8" height="8" stroke="#000" stroke-width=".5" fill="#000"></rect>
      <rect x="200" y="240" width="8" height="8" stroke="#000" stroke-width=".5" fill="#000"></rect>
      <rect x="208" y="240" width="8" height="8" stroke="#000" stroke-width=".5" fill="#000"></rect>
      <rect x="216" y="240" width="8" height="8" stroke="#000" stroke-width=".5" fill="#000"></rect>
      <rect x="224" y="240" width="8" height="8" stroke="#000" stroke-width=".5" fill="#000"></rect>
      <rect x="232" y="240" width="8" height="8" stroke="#000" stroke-width=".5" fill="#000"></rect>
      <rect x="240" y="240" width="8" height="8" stroke="#000" stroke-width=".5" fill="#000"></rect>
      <rect x="248" y="240" width="8" height="8" stroke="#000" stroke-width=".5" fill="#000"></rect>
      <rect x="0" y="248" width="8" height="8" stroke="#000" stroke-width=".5" fill="#000"></rect>
      <rect x="8" y="248" width="8" height="8" stroke="#000" stroke-width=".5" fill="#000"></rect>
      <rect x="16" y="248" width="8" height="8" stroke="#000" stroke-width=".5" fill="#000"></rect>
      <rect x="24" y="248" width="8" height="8" stroke="#000" stroke-width=".5" fill="#000"></rect>
      <rect x="32" y="248" width="8" height="8" stroke="#000" stroke-width=".5" fill="#000"></rect>
      <rect x="40" y="248" width="8" height="8" stroke="#000" stroke-width=".5" fill="#000"></rect>
      <rect x="48" y="248" width="8" height="8" stroke="#000" stroke-width=".5" fill="#000"></rect>
      <rect x="56" y="248" width="8" height="8" stroke="#000" stroke-width=".5" fill="#000"></rect>
      <rect x="64" y="248" width="8" height="8" stroke="#000" stroke-width=".5" fill="#000"></rect>
      <rect x="72" y="248" width="8" height="8" stroke="#000" stroke-width=".5" fill="#000"></rect>
      <rect x="80" y="248" width="8" height="8" stroke="#000" stroke-width=".5" fill="#000"></rect>
      <rect x="88" y="248" width="8" height="8" stroke="#000" stroke-width=".5" fill="#000"></rect>
      <rect x="96" y="248" width="8" height="8" stroke="#000" stroke-width=".5" fill="#000"></rect>
      <rect x="104" y="248" width="8" height="8" stroke="#000" stroke-width=".5" fill="#000"></rect>
      <rect x="112" y="248" width="8" height="8" stroke="#000" stroke-width=".5" fill="#000"></rect>
      <rect x="120" y="248" width="8" height="8" stroke="#000" stroke-width=".5" fill="#000"></rect>
      <rect x="128" y="248" width="8" height="8" stroke="#000" stroke-width=".5" fill="#000"></rect>
      <rect x="136" y="248" width="8" height="8" stroke="#000" stroke-width=".5" fill="#000"></rect>
      <rect x="144" y="248" width="8" height="8" stroke="#000" stroke-width=".5" fill="#000"></rect>
      <rect x="152" y="248" width="8" height="8" stroke="#000" stroke-width=".5" fill="#000"></rect>
      <rect x="160" y="248" width="8" height="8" stroke="#000" stroke-width=".5" fill="#000"></rect>
      <rect x="168" y="248" width="8" height="8" stroke="#000" stroke-width=".5" fill="#000"></rect>
      <rect x="176" y="248" width="8" height="8" stroke="#000" stroke-width=".5" fill="#000"></rect>
      <rect x="184" y="248" width="8" height="8" stroke="#000" stroke-width=".5" fill="#000"></rect>
      <rect x="192" y="248" width="8" height="8" stroke="#000" stroke-width=".5" fill="#000"></rect>
      <rect x="200" y="248" width="8" height="8" stroke="#000" stroke-width=".5" fill="#000"></rect>
      <rect x="208" y="248" width="8" height="8" stroke="#000" stroke-width=".5" fill="#000"></rect>
      <rect x="216" y="248" width="8" height="8" stroke="#000" stroke-width=".5" fill="#000"></rect>
      <rect x="224" y="248" width="8" height="8" stroke="#000" stroke-width=".5" fill="#000"></rect>
      <rect x="232" y="248" width="8" height="8" stroke="#000" stroke-width=".5" fill="#000"></rect>
      <rect x="240" y="248" width="8" height="8" stroke="#000" stroke-width=".5" fill="#000"></rect>
      <rect x="248" y="248" width="8" height="8" stroke="#000" stroke-width=".5" fill="#000"></rect>
    </mask>
    <filter id="shadow">
      <feDropShadow dx="-2" dy="-2" flood-color="#0048" stdDeviation="1"></feDropShadow>
      <feDropShadow dx="2" dy="-2" flood-color="#0048" stdDeviation="1"></feDropShadow>
      <feDropShadow dx="-2" dy="2" flood-color="#fff4" stdDeviation="1"></feDropShadow>
      <feDropShadow dx="2" dy="2" flood-color="#fff4" stdDeviation="1"></feDropShadow>
    </filter>
    <filter id="innershadow">
      <feDropShadow dx="0" dy="2" flood-color="#fff4" stdDeviation="2"></feDropShadow>
      <feDropShadow dx="0" dy="-2" flood-color="#0004" stdDeviation="2"></feDropShadow>
    </filter>
    <filter id="outershadow">
      <feDropShadow dx="0" dy="4" flood-color="#0008" stdDeviation="8"></feDropShadow>
    </filter>
  </defs>
  <rect x="100" y="100" rx="200" ry="200" width="824" height="824" fill="url(#grad2)" filter="url(#outershadow)"></rect>
  <rect x="124" y="124" rx="176" ry="176" width="776" height="776" fill="url(#grad)" filter="url(#innershadow)"></rect>
  <g filter="url(#shadow)">
    <path transform="translate(270, 204) scale(2.75)" d="M 0,4
          C 0,2 2,0 4,0 
                L 48,0
                C 144,0 176,32 180,112
                C 176,192 144,224 48,224
                L 0,224z
                M 48,48
                L 68,48
                C 102,48 132,48 132,112
                C 132,176 102,176 84,176           
                L 48,176z" fill="#f0f0f0" fill-rule="evenodd" mask="url(#dither)"></path>
  </g>
</svg>